<svg width="28" height="28" viewBox="0 0 28 28" fill="none" xmlns="http://www.w3.org/2000/svg">
<path d="M14 0.1875C11.2682 0.1875 8.59765 0.997589 6.32619 2.51533C4.05474 4.03306 2.28436 6.19028 1.23892 8.71418C0.193485 11.2381 -0.0800488 14.0153 0.45291 16.6947C0.985868 19.374 2.30138 21.8352 4.23309 23.7669C6.16481 25.6986 8.62596 27.0141 11.3053 27.5471C13.9847 28.0801 16.7619 27.8065 19.2858 26.7611C21.8097 25.7157 23.9669 23.9453 25.4847 21.6738C27.0024 19.4024 27.8125 16.7319 27.8125 14C27.8086 10.3379 26.3522 6.82687 23.7626 4.23736C21.1731 1.64785 17.6621 0.191367 14 0.1875ZM14 25.6875C11.6884 25.6875 9.42878 25.002 7.50678 23.7178C5.58478 22.4336 4.08676 20.6082 3.20216 18.4726C2.31756 16.337 2.08611 13.987 2.53708 11.7199C2.98804 9.45273 4.10117 7.37022 5.7357 5.73569C7.37022 4.10116 9.45273 2.98804 11.7199 2.53707C13.987 2.08611 16.337 2.31756 18.4726 3.20216C20.6082 4.08676 22.4336 5.58477 23.7178 7.50677C25.002 9.42877 25.6875 11.6884 25.6875 14C25.684 17.0986 24.4515 20.0694 22.2604 22.2604C20.0694 24.4515 17.0986 25.684 14 25.6875ZM7.62501 11.3438C7.62501 11.0285 7.71848 10.7204 7.8936 10.4583C8.06872 10.1962 8.31763 9.99194 8.60885 9.87132C8.90007 9.75069 9.22052 9.71913 9.52968 9.78062C9.83884 9.84212 10.1228 9.99391 10.3457 10.2168C10.5686 10.4397 10.7204 10.7237 10.7819 11.0328C10.8434 11.342 10.8118 11.6624 10.6912 11.9537C10.5706 12.2449 10.3663 12.4938 10.1042 12.6689C9.8421 12.844 9.53397 12.9375 9.21876 12.9375C8.79607 12.9375 8.39069 12.7696 8.0918 12.4707C7.79292 12.1718 7.62501 11.7664 7.62501 11.3438ZM20.375 11.3438C20.375 11.659 20.2815 11.9671 20.1064 12.2292C19.9313 12.4913 19.6824 12.6956 19.3912 12.8162C19.0999 12.9368 18.7795 12.9684 18.4703 12.9069C18.1612 12.8454 17.8772 12.6936 17.6543 12.4707C17.4314 12.2478 17.2796 11.9638 17.2181 11.6547C17.1566 11.3455 17.1882 11.0251 17.3088 10.7338C17.4295 10.4426 17.6337 10.1937 17.8958 10.0186C18.1579 9.84347 18.466 9.75 18.7813 9.75C19.2039 9.75 19.6093 9.91791 19.9082 10.2168C20.2071 10.5157 20.375 10.9211 20.375 11.3438ZM20.2329 17.7188C18.8663 20.0815 16.5938 21.4375 14 21.4375C11.4062 21.4375 9.13508 20.0828 7.76844 17.7188C7.69157 17.5978 7.63995 17.4626 7.61669 17.3212C7.59343 17.1798 7.59902 17.0351 7.63311 16.896C7.6672 16.7568 7.7291 16.6259 7.81507 16.5113C7.90104 16.3966 8.00932 16.3006 8.13338 16.2289C8.25745 16.1572 8.39473 16.1113 8.53698 16.094C8.67924 16.0767 8.82351 16.0884 8.96114 16.1283C9.09876 16.1682 9.22689 16.2356 9.33781 16.3263C9.44873 16.417 9.54015 16.5293 9.60657 16.6562C10.5987 18.3709 12.1579 19.3125 14 19.3125C15.8421 19.3125 17.4013 18.3695 18.3921 16.6562C18.533 16.4121 18.7651 16.234 19.0373 16.161C19.3096 16.0881 19.5997 16.1262 19.8438 16.2671C20.0879 16.408 20.266 16.6401 20.339 16.9123C20.4119 17.1846 20.3738 17.4746 20.2329 17.7188Z" fill="white"/>
</svg>
