<svg width="28" height="28" viewBox="0 0 28 28" fill="none" xmlns="http://www.w3.org/2000/svg">
<path d="M14 0.1875C11.2682 0.1875 8.59765 0.997589 6.32619 2.51533C4.05474 4.03306 2.28436 6.19028 1.23892 8.71418C0.193485 11.2381 -0.0800488 14.0153 0.45291 16.6947C0.985868 19.374 2.30138 21.8352 4.23309 23.7669C6.16481 25.6986 8.62596 27.0141 11.3053 27.5471C13.9847 28.0801 16.7619 27.8065 19.2858 26.7611C21.8097 25.7157 23.9669 23.9453 25.4847 21.6738C27.0024 19.4024 27.8125 16.7319 27.8125 14C27.8086 10.3379 26.3522 6.82687 23.7626 4.23736C21.1731 1.64785 17.6621 0.191367 14 0.1875ZM25.6875 14C25.6887 15.4994 25.4 16.9849 24.8375 18.3748L18.9008 14.7238C18.6484 14.5681 18.366 14.4672 18.072 14.4277L15.0413 14.0186C14.6236 13.9641 14.1992 14.0341 13.8212 14.2198C13.4432 14.4055 13.1284 14.6987 12.9163 15.0625H11.7581L11.2534 14.0186C11.1139 13.7279 10.9097 13.473 10.6565 13.2734C10.4033 13.0739 10.1077 12.9349 9.79251 12.8671L8.73001 12.6373L9.7686 10.8125H11.9879C12.347 10.8118 12.7001 10.7204 13.0145 10.5469L14.6415 9.64906C14.7844 9.56938 14.9181 9.47406 15.0399 9.36484L18.6139 6.13219C18.9722 5.81106 19.2104 5.37739 19.2891 4.90271C19.3678 4.42802 19.2824 3.94069 19.0469 3.52109L18.9991 3.43477C20.999 4.38304 22.6889 5.87904 23.8728 7.74912C25.0567 9.6192 25.6859 11.7867 25.6875 14ZM16.0334 2.49047L17.1875 4.55703L13.6135 7.78969L11.9879 8.6875H9.7686C9.39505 8.68695 9.02796 8.78488 8.70432 8.97141C8.38068 9.15795 8.11194 9.4265 7.92516 9.75L6.76571 11.7727L5.41766 8.18148L6.87063 4.74563C8.15671 3.75191 9.63617 3.03778 11.2142 2.64899C12.7923 2.26019 14.4342 2.20529 16.0347 2.48781L16.0334 2.49047ZM2.31251 14C2.31073 12.2628 2.6983 10.5474 3.44672 8.97969L4.95282 12.9999C5.07833 13.3328 5.2854 13.6288 5.55504 13.8609C5.82467 14.0929 6.14825 14.2535 6.4961 14.328L9.34227 14.9403L9.84829 15.9922C10.0239 16.3499 10.2961 16.6515 10.634 16.8627C10.972 17.0739 11.3623 17.1864 11.7608 17.1875H11.9573L10.9971 19.343C10.8279 19.7226 10.7737 20.1434 10.8412 20.5535C10.9088 20.9635 11.095 21.3447 11.377 21.65L11.3956 21.6686L14 24.3514L13.7423 25.6795C10.6901 25.6085 7.78645 24.3474 5.65104 22.1653C3.51564 19.9833 2.31757 17.0531 2.31251 14ZM15.9364 25.5255L16.0865 24.7538C16.1482 24.426 16.1322 24.0883 16.04 23.7677C15.9478 23.4472 15.7817 23.1526 15.5552 22.9077C15.5487 22.9019 15.5425 22.8957 15.5366 22.8891L12.9375 20.2077L14.757 16.125L17.7878 16.5341L23.86 20.2687C22.9803 21.6503 21.8206 22.832 20.4557 23.7375C19.0909 24.6429 17.5513 25.252 15.9364 25.5255Z" fill="white"/>
</svg>
