<svg width="24" height="24" viewBox="0 0 24 24" fill="none" xmlns="http://www.w3.org/2000/svg">
<path d="M21.999 16.19C21.999 19.83 19.829 22 16.189 22H14.999C14.449 22 13.999 21.55 13.999 21V15.23C13.999 14.96 14.219 14.73 14.489 14.73L16.249 14.7C16.389 14.69 16.509 14.59 16.539 14.45L16.889 12.54C16.919 12.36 16.779 12.19 16.589 12.19L14.459 12.22C14.179 12.22 13.959 12 13.949 11.73L13.909 9.28C13.909 9.12 14.039 8.98001 14.209 8.98001L16.609 8.94C16.779 8.94 16.909 8.81002 16.909 8.64002L16.869 6.23999C16.869 6.06999 16.739 5.94 16.569 5.94L13.869 5.98001C12.209 6.01001 10.889 7.37 10.919 9.03L10.969 11.78C10.979 12.06 10.759 12.28 10.479 12.29L9.27902 12.31C9.10902 12.31 8.97904 12.44 8.97904 12.61L9.00903 14.51C9.00903 14.68 9.13902 14.81 9.30902 14.81L10.509 14.79C10.789 14.79 11.009 15.01 11.019 15.28L11.109 20.98C11.119 21.54 10.669 22 10.109 22H7.80902C4.16902 22 1.99902 19.83 1.99902 16.18V7.81C1.99902 4.17 4.16902 2 7.80902 2H16.189C19.829 2 21.999 4.17 21.999 7.81V16.19Z" fill="white"/>
</svg>
