<svg width="24" height="24" viewBox="0 0 24 24" fill="none" xmlns="http://www.w3.org/2000/svg">
<path d="M16.1915 2H7.81146C4.17146 2 2.00146 4.17 2.00146 7.81V16.18C2.00146 19.83 4.17146 22 7.81146 22H16.1815C19.8215 22 21.9915 19.83 21.9915 16.19V7.81C22.0015 4.17 19.8315 2 16.1915 2ZM12.0015 15.88C9.86146 15.88 8.12146 14.14 8.12146 12C8.12146 9.86 9.86146 8.12 12.0015 8.12C14.1415 8.12 15.8815 9.86 15.8815 12C15.8815 14.14 14.1415 15.88 12.0015 15.88ZM17.9215 6.88C17.8715 7 17.8015 7.11 17.7115 7.21C17.6115 7.3 17.5015 7.37 17.3815 7.42C17.2615 7.47 17.1315 7.5 17.0015 7.5C16.7315 7.5 16.4815 7.4 16.2915 7.21C16.2015 7.11 16.1315 7 16.0815 6.88C16.0315 6.76 16.0015 6.63 16.0015 6.5C16.0015 6.37 16.0315 6.24 16.0815 6.12C16.1315 5.99 16.2015 5.89 16.2915 5.79C16.5215 5.56 16.8715 5.45 17.1915 5.52C17.2615 5.53 17.3215 5.55 17.3815 5.58C17.4415 5.6 17.5015 5.63 17.5615 5.67C17.6115 5.7 17.6615 5.75 17.7115 5.79C17.8015 5.89 17.8715 5.99 17.9215 6.12C17.9715 6.24 18.0015 6.37 18.0015 6.5C18.0015 6.63 17.9715 6.76 17.9215 6.88Z" fill="white"/>
</svg>
