<svg width="34" height="28" viewBox="0 0 34 28" fill="none" xmlns="http://www.w3.org/2000/svg">
<path d="M33.6898 14.7518L30.5023 17.9393C30.4036 18.0381 30.2865 18.1165 30.1575 18.17C30.0285 18.2234 29.8902 18.2509 29.7506 18.2509C29.611 18.2509 29.4727 18.2234 29.3437 18.17C29.2147 18.1165 29.0975 18.0381 28.9989 17.9393L25.8114 14.7518C25.612 14.5525 25.5 14.2821 25.5 14.0001C25.5 13.7182 25.612 13.4478 25.8114 13.2484C26.0107 13.049 26.2811 12.937 26.5631 12.937C26.845 12.937 27.1154 13.049 27.3148 13.2484L28.6881 14.623V14.0001C28.6893 11.5253 27.9049 9.11403 26.448 7.11359C24.991 5.11314 22.9366 3.62681 20.5808 2.86872C18.225 2.11062 15.6893 2.11989 13.3391 2.89519C10.9889 3.67049 8.94548 5.1718 7.50317 7.18285C7.33867 7.4118 7.08996 7.56604 6.81175 7.61162C6.53353 7.6572 6.24861 7.59039 6.01965 7.42589C5.7907 7.2614 5.63646 7.01269 5.59088 6.73447C5.5453 6.45626 5.61211 6.17134 5.77661 5.94238C7.48124 3.56573 9.89629 1.79152 12.6739 0.87534C15.4514 -0.0408368 18.4481 -0.0516852 21.2322 0.844357C24.0164 1.7404 26.4442 3.49708 28.166 5.86133C29.8878 8.22557 30.8147 11.0753 30.8131 14.0001V14.623L32.1864 13.2484C32.3857 13.049 32.6561 12.937 32.9381 12.937C33.22 12.937 33.4904 13.049 33.6898 13.2484C33.8892 13.4478 34.0012 13.7182 34.0012 14.0001C34.0012 14.2821 33.8892 14.5525 33.6898 14.7518ZM28.2206 22.0565C26.5155 24.4314 24.1008 26.2039 21.3241 27.1191C18.5474 28.0342 15.552 28.0447 12.769 27.149C9.98595 26.2533 7.55891 24.4977 5.83722 22.1348C4.11552 19.7719 3.18797 16.9237 3.18809 14.0001V13.3772L1.81481 14.7518C1.61544 14.9512 1.34504 15.0632 1.06309 15.0632C0.781142 15.0632 0.51074 14.9512 0.311372 14.7518C0.112004 14.5525 0 14.2821 0 14.0001C0 13.7182 0.112004 13.4478 0.311372 13.2484L3.49887 10.0609C3.59755 9.96211 3.71473 9.88374 3.84372 9.83027C3.9727 9.7768 4.11096 9.74928 4.25059 9.74928C4.39022 9.74928 4.52848 9.7768 4.65746 9.83027C4.78645 9.88374 4.90363 9.96211 5.00231 10.0609L8.18981 13.2484C8.38918 13.4478 8.50118 13.7182 8.50118 14.0001C8.50118 14.2821 8.38918 14.5525 8.18981 14.7518C7.99044 14.9512 7.72004 15.0632 7.43809 15.0632C7.15614 15.0632 6.88574 14.9512 6.68637 14.7518L5.31309 13.3772V14.0001C5.31057 16.8612 6.36211 19.6229 8.26684 21.7577C9.45184 20.0405 11.1181 18.7121 13.0561 17.9393C12.0151 17.1194 11.2554 15.9955 10.8828 14.7238C10.5102 13.4521 10.5431 12.096 10.977 10.8439C11.4109 9.5918 12.2241 8.50604 13.3037 7.73759C14.3833 6.96914 15.6755 6.55621 17.0006 6.55621C18.3257 6.55621 19.6179 6.96914 20.6975 7.73759C21.777 8.50604 22.5903 9.5918 23.0242 10.8439C23.4581 12.096 23.491 13.4521 23.1184 14.7238C22.7458 15.9955 21.9861 17.1194 20.9451 17.9393C22.8849 18.7122 24.5523 20.0422 25.737 21.7617C26.0056 21.46 26.2587 21.1448 26.4954 20.8174C26.6599 20.5884 26.9086 20.4342 27.1868 20.3886C27.465 20.343 27.7499 20.4098 27.9789 20.5743C28.2078 20.7388 28.3621 20.9875 28.4076 21.2658C28.4532 21.544 28.3864 21.8289 28.2219 22.0578L28.2206 22.0565ZM17.0006 17.1876C17.8412 17.1876 18.6629 16.9384 19.3618 16.4714C20.0607 16.0044 20.6054 15.3406 20.9271 14.564C21.2488 13.7874 21.3329 12.9329 21.1689 12.1085C21.0049 11.2841 20.6002 10.5268 20.0058 9.93241C19.4114 9.33804 18.6541 8.93326 17.8297 8.76928C17.0053 8.60529 16.1508 8.68945 15.3742 9.01112C14.5976 9.3328 13.9338 9.87753 13.4668 10.5764C12.9998 11.2753 12.7506 12.097 12.7506 12.9376C12.7506 14.0648 13.1984 15.1458 13.9954 15.9428C14.7924 16.7398 15.8734 17.1876 17.0006 17.1876ZM17.0006 25.6876C19.5937 25.6842 22.1124 24.8205 24.1618 23.2319C23.3932 22.0298 22.3343 21.0405 21.0828 20.3553C19.8313 19.67 18.4274 19.3108 17.0006 19.3108C15.5738 19.3108 14.1699 19.67 12.9184 20.3553C11.6668 21.0405 10.608 22.0298 9.83934 23.2319C11.8857 24.8262 14.4064 25.6906 17.0006 25.6876Z" fill="white"/>
</svg>
