<svg width="34" height="24" viewBox="0 0 34 24" fill="none" xmlns="http://www.w3.org/2000/svg">
<path d="M33.7731 8.33176L30.3837 1.55035C30.2589 1.30075 30.0861 1.0782 29.8752 0.895386C29.6643 0.712578 29.4195 0.5731 29.1547 0.484919C28.8899 0.396737 28.6103 0.361579 28.332 0.381453C28.0536 0.401326 27.7818 0.475842 27.5323 0.600744L24.2292 2.2516L17.2712 0.410822C17.0926 0.364361 16.9052 0.364361 16.7266 0.410822L9.76859 2.2516L6.46554 0.600744C6.21597 0.475842 5.94423 0.401326 5.66585 0.381453C5.38747 0.361579 5.1079 0.396737 4.84311 0.484919C4.57832 0.5731 4.33349 0.712578 4.12261 0.895386C3.91173 1.0782 3.73892 1.30075 3.61406 1.55035L0.224685 8.33043C0.0997834 8.58001 0.025268 8.85175 0.00539454 9.13013C-0.0144789 9.40851 0.020679 9.68808 0.10886 9.95287C0.197042 10.2177 0.336519 10.4625 0.519328 10.6734C0.702137 10.8842 0.924696 11.0571 1.17429 11.1819L4.76023 12.9762L12.13 18.2396C12.2386 18.3168 12.3607 18.3731 12.4899 18.4056L20.9899 20.5306C21.1679 20.5752 21.3545 20.573 21.5314 20.5241C21.7082 20.4752 21.8695 20.3814 21.9993 20.2517L29.3133 12.9364L32.8222 11.1819C33.3259 10.9297 33.7089 10.4879 33.887 9.95341C34.0651 9.41896 34.0236 8.83567 33.7718 8.33176H33.7731ZM26.483 12.7637L21.913 9.1034C21.7082 8.93944 21.4501 8.857 21.1882 8.87196C20.9263 8.88692 20.6793 8.99821 20.4945 9.18442C18.1291 11.5671 15.4928 11.2656 13.8114 10.2031L19.5542 4.62496H23.779L27.3928 11.8513L26.483 12.7637ZM5.51461 2.49996L8.23328 3.85731L4.83726 10.6374L2.1239 9.28137L5.51461 2.49996ZM20.9209 18.3219L13.2031 16.3935L6.66875 11.7264L10.3875 4.28895L16.9989 2.53715L18.3005 2.88113L12.3239 8.68239L12.3133 8.69434C12.0883 8.91931 11.9167 9.19194 11.8112 9.49209C11.7056 9.79224 11.6689 10.1123 11.7035 10.4285C11.7382 10.7448 11.8435 11.0492 12.0115 11.3194C12.1796 11.5896 12.4062 11.8185 12.6745 11.9894C15.4052 13.7332 18.7002 13.4504 21.2954 11.3254L24.9677 14.2751L20.9209 18.3219ZM29.1552 10.6361L25.7659 3.86262L28.4832 2.49996L31.8739 9.28137L29.1552 10.6361ZM17.5009 22.9438C17.4435 23.1734 17.3111 23.3773 17.1246 23.5231C16.9382 23.6689 16.7083 23.7483 16.4716 23.7486C16.3843 23.7485 16.2974 23.7378 16.2127 23.7168L10.6784 22.3329C10.5489 22.3009 10.4268 22.2446 10.3184 22.1668L6.81883 19.6673C6.60364 19.4984 6.46193 19.2529 6.42318 18.9821C6.38444 18.7113 6.45165 18.4359 6.61083 18.2134C6.77001 17.9909 7.00888 17.8384 7.27771 17.7876C7.54653 17.7368 7.82459 17.7917 8.05398 17.9407L11.3889 20.3234L16.7333 21.6568C17.0066 21.7252 17.2416 21.8993 17.3865 22.1409C17.5315 22.3825 17.5745 22.6718 17.5062 22.9451L17.5009 22.9438Z" fill="white"/>
</svg>
